<?xml version="1.0" standalone="no"?>
<!DOCTYPE svg PUBLIC "-//W3C//DTD SVG 20010904//EN"
 "http://www.w3.org/TR/2001/REC-SVG-20010904/DTD/svg10.dtd">
<svg version="1.0" xmlns="http://www.w3.org/2000/svg"
 width="980.000000pt" height="980.000000pt" viewBox="0 0 980.000000 980.000000"
 preserveAspectRatio="xMidYMid meet">

<g transform="translate(0.000000,980.000000) scale(0.100000,-0.100000)"
fill="#000000" stroke="none">
<path d="M4710 9794 c-25 -2 -110 -8 -190 -14 -919 -67 -1807 -403 -2565 -970
-355 -266 -699 -610 -965 -965 -504 -674 -817 -1427 -934 -2245 -37 -262 -50
-440 -50 -700 0 -1071 337 -2081 984 -2945 266 -355 610 -699 965 -965 674
-504 1427 -817 2245 -934 262 -37 440 -50 700 -50 1071 0 2081 337 2945 984
355 266 699 610 965 965 504 674 817 1427 934 2245 37 262 50 440 50 700 0
1071 -337 2081 -984 2945 -266 355 -610 699 -965 965 -754 564 -1609 889
-2550 970 -130 11 -512 20 -585 14z m-563 -2799 c36 -88 67 -161 67 -162 1 -1
60 5 131 14 242 31 1030 23 1213 -13 27 -5 28 -2 94 158 l67 163 38 -2 c80 -4
839 -225 1103 -320 l105 -38 68 -100 c159 -233 338 -559 453 -820 211 -484
339 -970 400 -1515 18 -165 30 -708 19 -851 l-7 -94 -76 -56 c-275 -201 -617
-393 -952 -534 -144 -61 -505 -185 -537 -185 -15 0 -54 59 -167 256 -81 141
-146 257 -144 259 2 1 110 56 241 122 l238 119 -51 43 -51 43 -107 -50 c-286
-133 -590 -214 -962 -254 -151 -16 -709 -16 -860 0 -372 40 -676 121 -962 254
l-107 50 -51 -43 -51 -43 238 -119 c131 -66 239 -121 241 -122 2 -2 -63 -118
-144 -259 -113 -197 -152 -256 -167 -256 -32 0 -393 124 -537 185 -335 141
-677 333 -952 534 l-76 56 -7 94 c-11 143 1 686 19 851 81 733 292 1386 652
2011 102 178 258 415 281 427 102 54 1150 365 1211 359 21 -2 32 -23 89 -162z"/>
<path d="M3740 5237 c-89 -30 -160 -77 -226 -151 -100 -110 -154 -256 -154
-417 0 -330 235 -589 535 -589 202 0 369 109 466 305 91 185 91 385 0 570 -70
141 -184 243 -320 285 -89 28 -215 27 -301 -3z"/>
<path d="M5750 5237 c-83 -28 -168 -85 -226 -151 -58 -66 -120 -192 -139 -281
-30 -145 -12 -286 54 -420 97 -196 264 -305 466 -305 408 0 664 475 470 875
-64 133 -190 244 -323 285 -90 28 -216 27 -302 -3z"/>
</g>
</svg>
